<svg width="1440" height="1524" viewBox="0 0 1440 1524" fill="none" xmlns="http://www.w3.org/2000/svg">
<path d="M1468 0H-20.5L-28 1413.2V1457.39C-18 1566.67 34.1667 1502.92 59 1457.39C71 1439.71 82 1450.03 86 1457.39C100 1484.71 116.833 1468.77 123.5 1457.39C154.7 1407.57 188.833 1436.63 202 1457.39C236.4 1555.42 280.667 1498.24 298.5 1457.39C335 1345.9 390.5 1365.49 427.5 1457.39C457.1 1530.91 501.833 1484.34 520.5 1451.87C549.3 1390.8 576.833 1421.4 587 1444.33C599.8 1478.89 620.667 1458.73 629.5 1444.33C664.7 1393.31 693.167 1444.17 703 1475.97C717.8 1529.01 759.167 1485.68 778 1457.39C851.2 1356.15 896.167 1439.65 909.5 1494.05C918.7 1548.29 949.333 1516.65 963.5 1494.05C985.1 1467.54 1004.5 1492.38 1011.5 1508.11C1041.5 1547.89 1081.67 1487.19 1098 1451.87C1130.4 1383.17 1167.17 1443 1181.5 1481.5C1199.5 1536.14 1258.33 1427.26 1285.5 1365.99C1326 1274.09 1376.5 1395.62 1421.5 1432.28C1457.5 1461.61 1467.5 1400.31 1468 1365.99V0Z" fill="#0F3663"/>
</svg>
