<svg width="1496" height="244" viewBox="0 0 1496 244" fill="none" xmlns="http://www.w3.org/2000/svg">
<mask id="mask0_210_4361" style="mask-type:alpha" maskUnits="userSpaceOnUse" x="0" y="-1314" width="1496" height="1524">
<path d="M1496 -1314H7.5L0 99.2V143.39C10 252.67 62.1667 188.92 87 143.39C99 125.71 110 136.03 114 143.39C128 170.71 144.833 154.77 151.5 143.39C182.7 93.57 216.833 122.63 230 143.39C264.4 241.42 308.667 184.24 326.5 143.39C363 31.9 418.5 51.49 455.5 143.39C485.1 216.91 529.833 170.34 548.5 137.87C577.3 76.8 604.833 107.4 615 130.33C627.8 164.89 648.667 144.73 657.5 130.33C692.7 79.31 721.167 130.17 731 161.97C745.8 215.01 787.167 171.68 806 143.39C879.2 42.15 924.167 125.65 937.5 180.05C946.7 234.29 977.333 202.65 991.5 180.05C1013.1 153.54 1032.5 178.38 1039.5 194.11C1069.5 233.89 1109.67 173.19 1126 137.87C1158.4 69.17 1195.17 129 1209.5 167.5C1227.5 222.14 1286.33 113.26 1313.5 51.99C1354 -39.91 1404.5 81.62 1449.5 118.28C1485.5 147.61 1495.5 86.31 1496 51.99V-1314Z" fill="#0F3663"/>
</mask>
<g mask="url(#mask0_210_4361)">
<rect width="1504" height="244" fill="#0F3663"/>
</g>
</svg>
