<svg width="28" height="28" viewBox="0 0 28 28" fill="none" xmlns="http://www.w3.org/2000/svg">
<path d="M15.1994 2.33398C16.5124 2.33615 17.1778 2.3431 17.7527 2.36021L17.9791 2.36762C18.2407 2.37692 18.4988 2.38858 18.8099 2.40317C20.0514 2.46052 20.8983 2.65692 21.642 2.94567C22.411 3.24219 23.0604 3.64275 23.7089 4.29122C24.3564 4.93969 24.757 5.59108 25.0545 6.35817C25.3422 7.10094 25.5387 7.94872 25.597 9.19025C25.6109 9.50135 25.6221 9.75942 25.6313 10.021L25.6387 10.2475C25.6557 10.8223 25.6635 11.4878 25.666 12.8008L25.6669 13.6707C25.667 13.777 25.667 13.8867 25.667 13.9999L25.6669 14.329L25.6662 15.199C25.664 16.5119 25.6571 17.1773 25.6399 17.7522L25.6325 17.9787C25.6233 18.2402 25.6116 18.4983 25.597 18.8094C25.5396 20.0509 25.3422 20.8978 25.0545 21.6415C24.7579 22.4105 24.3564 23.06 23.7089 23.7084C23.0604 24.3559 22.408 24.7565 21.642 25.054C20.8983 25.3417 20.0514 25.5382 18.8099 25.5965C18.4988 25.6104 18.2407 25.6216 17.9791 25.6308L17.7527 25.6382C17.1778 25.6552 16.5124 25.663 15.1994 25.6655L14.3295 25.6664C14.2232 25.6665 14.1135 25.6665 14.0003 25.6665L13.6712 25.6664L12.8012 25.6657C11.4883 25.6635 10.8228 25.6566 10.248 25.6395L10.0215 25.632C9.75991 25.6228 9.50184 25.6111 9.19074 25.5965C7.94921 25.5391 7.10337 25.3417 6.35866 25.054C5.59059 24.7575 4.94018 24.3559 4.29171 23.7084C3.64324 23.06 3.24366 22.4076 2.94616 21.6415C2.65741 20.8978 2.46199 20.0509 2.40366 18.8094C2.3898 18.4983 2.37849 18.2402 2.36933 17.9787L2.36199 17.7522C2.34493 17.1773 2.33714 16.5119 2.33462 15.199L2.33447 12.8008C2.33664 11.4878 2.34358 10.8223 2.3607 10.2475L2.36811 10.021C2.37741 9.75942 2.38907 9.50135 2.40366 9.19025C2.46101 7.94775 2.65741 7.10192 2.94616 6.35817C3.24268 5.5901 3.64324 4.93969 4.29171 4.29122C4.94018 3.64275 5.59157 3.24317 6.35866 2.94567C7.10241 2.65692 7.94824 2.4615 9.19074 2.40317C9.50184 2.38931 9.75991 2.378 10.0215 2.36884L10.248 2.36151C10.8228 2.34444 11.4883 2.33666 12.8012 2.33414L15.1994 2.33398ZM14.0003 8.1665C10.7769 8.1665 8.16699 10.7793 8.16699 13.9999C8.16699 17.2232 10.7798 19.8332 14.0003 19.8332C17.2237 19.8332 19.8337 17.2203 19.8337 13.9999C19.8337 10.7765 17.2208 8.1665 14.0003 8.1665ZM14.0003 10.4998C15.9334 10.4998 17.5003 12.0662 17.5003 13.9999C17.5003 15.9329 15.9339 17.4999 14.0003 17.4999C12.0673 17.4999 10.5003 15.9334 10.5003 13.9999C10.5003 12.0668 12.0667 10.4998 14.0003 10.4998ZM20.1253 6.4165C19.3212 6.4165 18.667 7.06972 18.667 7.87384C18.667 8.67796 19.3202 9.33219 20.1253 9.33219C20.9294 9.33219 21.5837 8.67897 21.5837 7.87384C21.5837 7.06972 20.9284 6.41549 20.1253 6.4165Z" fill="black"/>
</svg>
