<svg width="28" height="28" viewBox="0 0 28 28" fill="none" xmlns="http://www.w3.org/2000/svg">
<path d="M21.3923 21.3955H18.2825V16.5226C18.2825 15.3606 18.2589 13.8652 16.662 13.8652C15.0407 13.8652 14.793 15.1297 14.793 16.4368V21.3955H11.6832V11.375H14.6705V12.7408H14.7107C15.1282 11.9533 16.1432 11.1221 17.6595 11.1221C20.8104 11.1221 21.3932 13.1959 21.3932 15.8953L21.3923 21.3955ZM8.17103 10.0039C7.17003 10.0039 6.36591 9.19362 6.36591 8.197C6.36591 7.20125 7.17091 6.39188 8.17103 6.39188C9.16853 6.39188 9.97703 7.20125 9.97703 8.197C9.97703 9.19362 9.16766 10.0039 8.17103 10.0039ZM9.73028 21.3955H6.61178V11.375H9.73028V21.3955ZM22.948 3.5H5.05078C4.19416 3.5 3.50116 4.17725 3.50116 5.01288V22.9872C3.50116 23.8236 4.19416 24.5 5.05078 24.5H22.9454C23.8012 24.5 24.5012 23.8236 24.5012 22.9872V5.01288C24.5012 4.17725 23.8012 3.5 22.9454 3.5H22.948Z" fill="black"/>
</svg>
