<svg width="25" height="25" viewBox="0 0 25 25" fill="none" xmlns="http://www.w3.org/2000/svg">
<path fill-rule="evenodd" clip-rule="evenodd" d="M12.7094 2.25586C8.83935 2.25586 5.70935 5.38586 5.70935 9.25586C5.70935 14.5059 12.7094 22.2559 12.7094 22.2559C12.7094 22.2559 19.7094 14.5059 19.7094 9.25586C19.7094 5.38586 16.5794 2.25586 12.7094 2.25586ZM12.7094 11.7559C11.3294 11.7559 10.2094 10.6359 10.2094 9.25586C10.2094 7.87586 11.3294 6.75586 12.7094 6.75586C14.0894 6.75586 15.2094 7.87586 15.2094 9.25586C15.2094 10.6359 14.0894 11.7559 12.7094 11.7559Z" fill="#C2D1D9"/>
<mask id="mask0_38_877" style="mask-type:luminance" maskUnits="userSpaceOnUse" x="5" y="2" width="15" height="21">
<path fill-rule="evenodd" clip-rule="evenodd" d="M12.7094 2.25586C8.83935 2.25586 5.70935 5.38586 5.70935 9.25586C5.70935 14.5059 12.7094 22.2559 12.7094 22.2559C12.7094 22.2559 19.7094 14.5059 19.7094 9.25586C19.7094 5.38586 16.5794 2.25586 12.7094 2.25586ZM12.7094 11.7559C11.3294 11.7559 10.2094 10.6359 10.2094 9.25586C10.2094 7.87586 11.3294 6.75586 12.7094 6.75586C14.0894 6.75586 15.2094 7.87586 15.2094 9.25586C15.2094 10.6359 14.0894 11.7559 12.7094 11.7559Z" fill="white"/>
</mask>
<g mask="url(#mask0_38_877)">
<rect x="0.709351" y="0.255859" width="24" height="24" fill="#424B5A"/>
</g>
</svg>
