<svg width="25" height="25" viewBox="0 0 25 25" fill="none" xmlns="http://www.w3.org/2000/svg">
<path fill-rule="evenodd" clip-rule="evenodd" d="M20.7094 3.8418H4.70935C3.05741 3.8418 1.71935 5.18915 1.71935 6.8418L1.70935 18.841C1.70935 20.4941 3.05707 21.8418 4.70935 21.8418H20.7094C22.3616 21.8418 23.7094 20.4941 23.7094 18.8418V6.8418C23.7094 5.18951 22.3616 3.8418 20.7094 3.8418ZM6.19341 9.84195C5.72036 9.55692 5.56794 8.94238 5.85296 8.46932C6.13799 7.99627 6.75253 7.84385 7.22559 8.12887L12.68 11.4153L18.3726 7.98541C18.8457 7.70038 19.461 7.85419 19.7461 8.32724C20.0304 8.79921 19.8802 9.41367 19.4092 9.69957L12.7193 13.7598L12.713 13.7702L6.19341 9.84195Z" fill="#979797"/>
<mask id="mask0_38_828" style="mask-type:luminance" maskUnits="userSpaceOnUse" x="1" y="3" width="23" height="19">
<path fill-rule="evenodd" clip-rule="evenodd" d="M20.7094 3.8418H4.70935C3.05741 3.8418 1.71935 5.18915 1.71935 6.8418L1.70935 18.841C1.70935 20.4941 3.05707 21.8418 4.70935 21.8418H20.7094C22.3616 21.8418 23.7094 20.4941 23.7094 18.8418V6.8418C23.7094 5.18951 22.3616 3.8418 20.7094 3.8418ZM6.19341 9.84195C5.72036 9.55692 5.56794 8.94238 5.85296 8.46932C6.13799 7.99627 6.75253 7.84385 7.22559 8.12887L12.68 11.4153L18.3726 7.98541C18.8457 7.70038 19.461 7.85419 19.7461 8.32724C20.0304 8.79921 19.8802 9.41367 19.4092 9.69957L12.7193 13.7598L12.713 13.7702L6.19341 9.84195Z" fill="white"/>
</mask>
<g mask="url(#mask0_38_828)">
<rect x="0.709351" y="0.841797" width="24" height="24" fill="#424B5A"/>
</g>
</svg>
