<svg width="28" height="28" viewBox="0 0 28 28" fill="none" xmlns="http://www.w3.org/2000/svg">
<path d="M21.4247 20.2587L14 27.6832L6.57538 20.2587C2.47487 16.1581 2.47487 9.50987 6.57538 5.40936C10.6759 1.30886 17.3241 1.30886 21.4247 5.40936C25.5252 9.50987 25.5252 16.1581 21.4247 20.2587ZM14 17.5007C16.5773 17.5007 18.6667 15.4113 18.6667 12.834C18.6667 10.2567 16.5773 8.16732 14 8.16732C11.4227 8.16732 9.33333 10.2567 9.33333 12.834C9.33333 15.4113 11.4227 17.5007 14 17.5007ZM14 15.1673C12.7113 15.1673 11.6667 14.1227 11.6667 12.834C11.6667 11.5453 12.7113 10.5007 14 10.5007C15.2887 10.5007 16.3333 11.5453 16.3333 12.834C16.3333 14.1227 15.2887 15.1673 14 15.1673Z" fill="black"/>
</svg>
