<svg width="25" height="25" viewBox="0 0 25 25" fill="none" xmlns="http://www.w3.org/2000/svg">
<path fill-rule="evenodd" clip-rule="evenodd" d="M7.32935 10.8388C8.76935 13.6688 11.0894 15.9788 13.9194 17.4288L16.1194 15.2288C16.3894 14.9588 16.7894 14.8688 17.1394 14.9888C18.2594 15.3588 19.4694 15.5588 20.7094 15.5588C21.2593 15.5588 21.7094 16.0088 21.7094 16.5588V20.0488C21.7094 20.5988 21.2593 21.0488 20.7094 21.0488C11.3194 21.0488 3.70935 13.4388 3.70935 4.04883C3.70935 3.49883 4.15935 3.04883 4.70935 3.04883H8.20935C8.75935 3.04883 9.20935 3.49883 9.20935 4.04883C9.20935 5.29883 9.40935 6.49883 9.77935 7.61883C9.88935 7.96883 9.80935 8.35883 9.52935 8.63883L7.32935 10.8388Z" fill="#C2D1D9"/>
<mask id="mask0_38_200" style="mask-type:luminance" maskUnits="userSpaceOnUse" x="3" y="3" width="19" height="19">
<path fill-rule="evenodd" clip-rule="evenodd" d="M7.32935 10.8388C8.76935 13.6688 11.0894 15.9788 13.9194 17.4288L16.1194 15.2288C16.3894 14.9588 16.7894 14.8688 17.1394 14.9888C18.2594 15.3588 19.4694 15.5588 20.7094 15.5588C21.2593 15.5588 21.7094 16.0088 21.7094 16.5588V20.0488C21.7094 20.5988 21.2593 21.0488 20.7094 21.0488C11.3194 21.0488 3.70935 13.4388 3.70935 4.04883C3.70935 3.49883 4.15935 3.04883 4.70935 3.04883H8.20935C8.75935 3.04883 9.20935 3.49883 9.20935 4.04883C9.20935 5.29883 9.40935 6.49883 9.77935 7.61883C9.88935 7.96883 9.80935 8.35883 9.52935 8.63883L7.32935 10.8388Z" fill="white"/>
</mask>
<g mask="url(#mask0_38_200)">
<rect x="0.709351" y="0.0488281" width="24" height="24" fill="#424B5A"/>
</g>
</svg>
