<svg width="28" height="28" viewBox="0 0 28 28" fill="none" xmlns="http://www.w3.org/2000/svg">
<path d="M18.6667 9.62025V18.084C18.6667 22.2722 15.2715 25.6673 11.0833 25.6673C6.89517 25.6673 3.5 22.2722 3.5 18.084C3.5 13.8958 6.89517 10.5007 11.0833 10.5007C11.6857 10.5007 12.2716 10.5709 12.8333 10.7036V14.3936C12.303 14.1416 11.7096 14.0007 11.0833 14.0007C8.82817 14.0007 7 15.8288 7 18.084C7 20.3391 8.82817 22.1673 11.0833 22.1673C13.3385 22.1673 15.1667 20.3391 15.1667 18.084V2.33398H18.6667C18.6667 5.55564 21.2784 8.16732 24.5 8.16732V11.6673C22.2928 11.6673 20.2645 10.9011 18.6667 9.62025Z" fill="black"/>
</svg>
