<svg width="28" height="28" viewBox="0 0 28 28" fill="none" xmlns="http://www.w3.org/2000/svg">
<path d="M14.0012 2.33398C20.4444 2.33398 25.6678 7.55733 25.6678 14.0007C25.6678 20.4439 20.4444 25.6673 14.0012 25.6673C11.8616 25.6673 9.85659 25.0915 8.13267 24.0861L2.33935 25.6673L3.91664 19.8707C2.91076 18.1465 2.33447 16.1409 2.33447 14.0007C2.33447 7.55733 7.55782 2.33398 14.0012 2.33398ZM9.79104 8.52704C9.64008 8.53764 9.49208 8.57451 9.35733 8.64345C9.25624 8.69517 9.16239 8.76991 9.01493 8.90915C8.87569 9.04063 8.79499 9.15545 8.70997 9.26616C8.27865 9.82772 8.04683 10.517 8.05114 11.2251C8.05348 11.7975 8.20216 12.3538 8.43697 12.8732C8.91312 13.9265 9.69836 15.0399 10.7356 16.0725C10.9847 16.3206 11.2288 16.5713 11.4921 16.803C12.7794 17.9365 14.3136 18.7539 15.9725 19.1902C15.9725 19.1902 16.6258 19.2906 16.6354 19.2911C16.8518 19.3028 17.0679 19.2872 17.2845 19.2761C17.6244 19.2586 17.9562 19.1667 18.2565 19.0067C18.4495 18.9039 18.5409 18.8528 18.7029 18.7506C18.7029 18.7506 18.7526 18.717 18.8485 18.6456C19.006 18.5283 19.1033 18.4457 19.2344 18.3096C19.331 18.2093 19.414 18.0908 19.4782 17.9572C19.5694 17.7668 19.6612 17.4034 19.6978 17.1015C19.7256 16.871 19.7172 16.745 19.7142 16.667C19.7092 16.5414 19.6055 16.4123 19.4918 16.3574L18.8134 16.0525C18.8134 16.0525 17.799 15.611 17.1786 15.328C17.1139 15.2985 17.0432 15.2848 16.9722 15.2805C16.8166 15.2709 16.6421 15.3115 16.5312 15.4284C16.5254 15.4261 16.4481 15.4928 15.604 16.5154C15.5575 16.5711 15.4484 16.692 15.2598 16.6807C15.2313 16.6787 15.2029 16.6747 15.1753 16.6674C15.0989 16.6472 15.0244 16.6206 14.9516 16.5898C14.8073 16.5286 14.7567 16.5054 14.6581 16.4629C13.9846 16.1687 13.3665 15.775 12.8201 15.2933C12.6736 15.1643 12.5373 15.0253 12.3969 14.8892C11.9066 14.414 11.5053 13.9086 11.2067 13.4101C11.1904 13.3829 11.1653 13.3436 11.1383 13.2996C11.0894 13.2202 11.0355 13.1257 11.0186 13.0608C10.9753 12.8892 11.0903 12.7513 11.0903 12.7513C11.0903 12.7513 11.3743 12.4408 11.5062 12.272C11.6332 12.1095 11.7427 11.9506 11.8125 11.8373C11.9499 11.6164 11.9934 11.388 11.9212 11.2119C11.5939 10.4139 11.2562 9.62024 10.9082 8.83108C10.8395 8.67534 10.6352 8.56219 10.4494 8.54073C10.3864 8.53346 10.3235 8.52616 10.2604 8.52201C10.1039 8.51438 9.94723 8.51606 9.79104 8.52704Z" fill="black"/>
</svg>
